<?xml version="1.0" encoding="UTF-8" standalone="no"?>
<!-- Created with Inkscape (http://www.inkscape.org/) -->

<svg
   width="900mm"
   height="200mm"
   viewBox="0 0 900 200"
   version="1.1"
   id="svg1"
   inkscape:version="1.3.2 (091e20e, 2023-11-25)"
   sodipodi:docname="logo.svg"
   xmlns:inkscape="http://www.inkscape.org/namespaces/inkscape"
   xmlns:sodipodi="http://sodipodi.sourceforge.net/DTD/sodipodi-0.dtd"
   xmlns:xlink="http://www.w3.org/1999/xlink"
   xmlns="http://www.w3.org/2000/svg"
   xmlns:svg="http://www.w3.org/2000/svg">
  <sodipodi:namedview
     id="namedview1"
     pagecolor="#ffffff"
     bordercolor="#000000"
     borderopacity="0.25"
     inkscape:showpageshadow="2"
     inkscape:pageopacity="0.0"
     inkscape:pagecheckerboard="0"
     inkscape:deskcolor="#d1d1d1"
     inkscape:document-units="mm"
     inkscape:zoom="0.21928908"
     inkscape:cx="1110.4064"
     inkscape:cy="827.67459"
     inkscape:window-width="1664"
     inkscape:window-height="968"
     inkscape:window-x="201"
     inkscape:window-y="125"
     inkscape:window-maximized="0"
     inkscape:current-layer="g1" />
  <defs
     id="defs1">
    <inkscape:perspective
       sodipodi:type="inkscape:persp3d"
       inkscape:vp_x="-470.2107 : 369.65944 : 1"
       inkscape:vp_y="13.9501 : 557.12294 : 0"
       inkscape:vp_z="-335.49748 : 366.07707 : 1"
       inkscape:persp3d-origin="-403.48401 : 342.71104 : 1"
       id="perspective9" />
    <linearGradient
       id="linearGradient14"
       inkscape:collect="always">
      <stop
         style="stop-color:#c2feff;stop-opacity:1;"
         offset="0.36674815"
         id="stop14" />
      <stop
         style="stop-color:#ffd876;stop-opacity:1;"
         offset="1"
         id="stop15" />
    </linearGradient>
    <inkscape:perspective
       sodipodi:type="inkscape:persp3d"
       inkscape:vp_x="-34.375225 : 105.32689 : 1"
       inkscape:vp_y="0 : 786.87199 : 0"
       inkscape:vp_z="166.04676 : 105.32689 : 1"
       inkscape:persp3d-origin="65.835791 : 69.795224 : 1"
       id="perspective9-5" />
    <linearGradient
       inkscape:collect="always"
       xlink:href="#linearGradient14"
       id="linearGradient2"
       x1="-474.32306"
       y1="192.20815"
       x2="-471.90994"
       y2="338.20074"
       gradientUnits="userSpaceOnUse"
       gradientTransform="matrix(0.71039341,0,0,0.7284923,-145.95477,65.540902)" />
  </defs>
  <g
     inkscape:label="Layer 1"
     inkscape:groupmode="layer"
     id="layer1">
    <g
       id="g1"
       transform="translate(56.856619,52.721592)">
      <path
         style="font-weight:bold;font-size:101.6px;line-height:0px;font-family:'Galhau Display';-inkscape-font-specification:'Galhau Display Bold';fill:#4d4d4d;stroke-width:0.33169"
         d="m 105.96348,23.656447 q 0,-6.778682 1.29235,-11.674396 1.29235,-4.8957138 4.26472,-8.0339921 2.97239,-3.13827877 7.88328,-4.64465278 4.91088,-1.50637402 12.14799,-1.50637402 7.49557,0 12.27723,1.63190449 4.78166,1.50637394 7.49557,4.77018411 2.84315,3.1382783 3.87703,8.0339923 1.16309,4.770183 1.16309,11.297803 h -18.09275 v -0.502125 q 0,-3.765934 -1.42157,-6.025495 -1.42158,-2.259561 -5.68631,-2.259561 -4.26471,0 -5.81552,2.510624 -1.42158,2.510622 -1.42158,6.402088 0,3.263809 2.32622,5.899964 2.45544,2.510622 6.07399,5.021246 3.61855,2.385091 7.75405,5.146776 4.26471,2.636155 7.88326,6.151027 3.61855,3.389341 5.94477,7.908461 2.45544,4.393591 2.45544,10.419086 0,5.272308 -1.29234,9.540367 -1.1631,4.142528 -4.13548,7.155274 -2.84315,2.887216 -7.6248,4.519122 -4.78166,1.506373 -11.7603,1.506373 -13.3111,0 -19.51432,-5.899964 -6.20325,-5.899963 -6.07402,-16.821172 v -3.263811 l 17.96353,-1.380841 v 3.765934 q 0,3.012748 1.68004,4.895714 1.68005,1.757437 5.55706,1.757437 3.87703,0 5.42784,-1.380843 1.68004,-1.380842 1.68004,-4.39359 0,-2.761685 -2.45545,-5.397839 -2.32621,-2.636155 -5.94476,-5.272308 -3.61855,-2.636155 -7.75404,-5.648902 -4.13549,-3.012748 -7.75404,-6.52762 -3.61855,-3.514872 -6.074,-7.782931 -2.32622,-4.393591 -2.32622,-9.91696 z m 62.03241,62.640041 V -1.5753119 h 27.00991 q 6.97863,0 11.63106,1.25531059 4.78166,1.12978144 7.6248,4.01699731 2.84313,2.8872166 4.00624,7.78293 1.16309,4.770182 1.16309,12.05099 0,14.561613 -5.55702,21.089232 -5.42784,6.527619 -18.86817,6.527619 h -8.91716 v 35.148721 z m 18.09275,-70.297441 v 17.57436 h 5.16937 q 3.61855,0 5.81553,-0.878718 2.19697,-1.004248 3.23085,-2.385091 1.1631,-1.506374 1.42157,-3.26381 0.25847,-1.757437 0.25847,-3.514872 -0.1293,-3.514873 -2.71392,-5.523371 -2.58467,-2.008498 -8.0125,-2.008498 z m 46.65333,-17.5743589 h 20.41896 L 268.28131,86.296488 H 251.0932 l -1.68004,-11.04674 h -14.73268 l -2.45544,11.04674 h -17.31733 z m 4.65243,59.8783549 h 10.08025 l -4.52319,-32.512567 z m 23.77911,-59.8783549 h 57.12142 V 15.371391 H 298.78061 V 86.296488 H 280.68784 V 15.371391 H 261.17351 Z M 327.34135,86.296488 V -1.5753119 h 18.09277 V 86.296488 Z m 43.0349,-87.8717999 h 20.41896 L 405.9156,86.296488 h -17.18812 l -1.68004,-11.04674 h -14.73268 l -2.45546,11.04674 h -17.31735 z m 4.65242,59.8783549 h 10.08026 L 380.58572,25.790476 Z M 413.0235,-1.5753119 h 18.09275 V 69.349784 h 16.67119 V 86.296488 H 413.0235 Z"
         id="text1"
         aria-label="Spatial" />
      <path
         style="font-weight:bold;font-size:101.6px;line-height:0px;font-family:'Galhau Display';-inkscape-font-specification:'Galhau Display Bold';fill:#4d4d4d;stroke-width:0.33169"
         d="m 494.36115,43.993857 h 26.36374 v 16.946704 q -1.16311,0 -2.06776,0.502124 -0.77541,0.376594 -1.42157,1.380844 -0.64617,0.878718 -0.64617,2.510622 0,1.882967 -0.12928,4.644653 0,2.636154 0.25846,5.774433 0.25847,3.012747 1.1631,6.276556 0.90465,3.138279 2.71392,6.151027 h -17.05884 q -0.25846,-0.376593 -0.51693,-0.627655 -0.12917,-0.251063 -0.3877,-0.753187 -4.39395,1.25531 -10.85566,1.25531 -13.31109,0 -19.51433,-5.899963 -6.20323,-5.899965 -6.07399,-16.821174 V 24.787592 q 0,-6.778682 1.29234,-11.674396 1.29234,-4.8957128 4.26472,-8.0339916 3.10161,-3.1382794 8.0125,-4.64465234 4.91089,-1.50637396 12.148,-1.50637396 7.49557,0 12.27722,1.63190423 4.78167,1.50637407 7.49558,4.77018387 2.84315,3.1382787 3.87702,8.0339918 1.03387,4.895715 1.03387,11.423334 V 30.0599 h -18.09275 v -5.899962 q 0,-3.765935 -1.29234,-6.025497 -1.29235,-2.25956 -5.55706,-2.25956 -4.26473,0 -5.94477,2.25956 -1.55081,2.13403 -1.55081,6.025497 v 40.295495 q 0,3.012748 1.68005,4.895715 1.80927,1.757436 5.68628,1.757436 3.87702,0 5.42783,-1.757436 1.55082,-1.882967 1.55082,-4.895715 0,-1.380842 -0.64618,-2.008498 -0.64616,-0.627656 -1.42157,-1.00425 -0.90464,-0.376593 -2.06774,-0.502124 z M 541.79003,-0.44416591 H 562.209 L 577.32937,87.427632 h -17.18811 l -1.68004,-11.046739 h -14.73268 l -2.45544,11.046739 h -17.31735 z m 4.65243,59.87835291 h 10.08024 l -4.52318,-32.512565 z m 37.99482,-59.87835291 h 18.09276 V 70.480928 h 16.67119 v 16.946704 h -34.76395 z m 43.81042,0 h 18.09275 V 70.480928 h 16.67119 V 87.427632 H 628.2477 Z m 43.81041,0 h 39.9333 V 16.502536 h -21.84054 v 17.448831 h 15.37885 V 50.89807 h -15.37885 v 19.582858 h 21.84054 v 16.946704 h -39.9333 z M 722.33012,87.427632 V -0.44416591 h 24.94216 q 6.97864,0 12.01876,1.38084214 5.04012,1.25531167 8.27097,4.26805857 3.23086,2.8872164 4.65243,7.6574002 1.55081,4.770182 1.55081,11.799926 0,7.531869 -2.45545,12.804175 -2.45545,5.146778 -6.07399,7.531869 1.29232,1.255312 2.58468,3.012748 1.42156,1.757436 2.45544,3.891465 1.03387,2.13403 1.68004,4.519122 0.77541,2.385092 0.77541,4.895715 V 87.427632 H 754.63862 V 63.827777 q 0,-2.25956 -0.51694,-4.39359 -0.51694,-2.134029 -1.55082,-3.640403 -1.03385,-1.631905 -2.84314,-2.510622 -1.80928,-1.00425 -4.26472,-1.00425 h -5.04012 v 35.14872 z m 18.09276,-70.29744 v 17.574361 h 5.16936 q 3.61855,0 5.81553,-0.878719 2.19697,-1.004249 3.23085,-2.385092 1.1631,-1.506373 1.42157,-3.263808 0.25847,-1.757436 0.25847,-3.514873 -0.12916,-3.514871 -2.71392,-5.52337 -2.58467,-2.008499 -8.0125,-2.008499 z m 61.12751,38.035936 -23.2621,-55.61029391 H 795.0887 L 810.85524,29.683307 824.94176,-0.44416591 H 841.096 L 819.64315,55.166128 v 32.261504 h -18.09276 z"
         id="text1-2"
         aria-label="Gallery" />
      <g
         id="g2"
         transform="matrix(1.1917938,0,0,1.1753751,585.63256,-259.37184)">
        <ellipse
           style="fill:url(#linearGradient2);fill-opacity:1;stroke:#79b6e6;stroke-width:0.190337"
           id="path1"
           cx="-477.33942"
           cy="254.34546"
           rx="56.14172"
           ry="54.935169" />
        <g
           sodipodi:type="inkscape:box3d"
           id="g9"
           style="fill:#0055d4"
           inkscape:perspectiveID="#perspective9-5"
           inkscape:corner0="0.31331983 : 0.084757982 : 0 : 1"
           inkscape:corner7="-0.19397109 : 0.015390522 : 0.25 : 1">
          <path
             sodipodi:type="inkscape:box3dside"
             id="path14"
             style="fill:#e9e9ff;fill-rule:evenodd;stroke:none;stroke-linejoin:round"
             inkscape:box3dsidetype="11"
             d="m -487.25903,239.40453 38.756,-8.14671 v 43.97517 l -38.756,-6.12305 z"
             points="-448.50303,231.25782 -448.50303,275.23299 -487.25903,269.10994 -487.25903,239.40453 " />
          <path
             sodipodi:type="inkscape:box3dside"
             id="path9"
             style="fill:#353564;fill-rule:evenodd;stroke:none;stroke-linejoin:round"
             inkscape:box3dsidetype="6"
             d="m -503.91336,236.17626 v 35.36005 l 16.65433,-2.42637 v -29.70541 z"
             points="-503.91336,271.53631 -487.25903,269.10994 -487.25903,239.40453 -503.91336,236.17626 " />
          <path
             sodipodi:type="inkscape:box3dside"
             id="path13"
             style="fill:#afafde;fill-rule:evenodd;stroke:none;stroke-linejoin:round"
             inkscape:box3dsidetype="13"
             d="m -503.91336,271.53631 40.29492,9.54927 15.11541,-5.85259 -38.756,-6.12305 z"
             points="-463.61844,281.08558 -448.50303,275.23299 -487.25903,269.10994 -503.91336,271.53631 " />
          <path
             sodipodi:type="inkscape:box3dside"
             id="path10"
             style="fill:#4d4d9f;fill-rule:evenodd;stroke:none;stroke-linejoin:round"
             inkscape:box3dsidetype="5"
             d="m -503.91336,236.17626 40.29492,-12.70531 15.11541,7.78687 -38.756,8.14671 z"
             points="-463.61844,223.47095 -448.50303,231.25782 -487.25903,239.40453 -503.91336,236.17626 " />
          <path
             sodipodi:type="inkscape:box3dside"
             id="path12"
             style="fill:#d7d7ff;fill-rule:evenodd;stroke:none;stroke-linejoin:round"
             inkscape:box3dsidetype="14"
             d="m -463.61844,223.47095 v 57.61463 l 15.11541,-5.85259 v -43.97517 z"
             points="-463.61844,281.08558 -448.50303,275.23299 -448.50303,231.25782 -463.61844,223.47095 " />
          <path
             sodipodi:type="inkscape:box3dside"
             id="path11"
             style="fill:#8686bf;fill-rule:evenodd;stroke:none;stroke-linejoin:round"
             inkscape:box3dsidetype="3"
             d="m -503.91336,236.17626 40.29492,-12.70531 v 57.61463 l -40.29492,-9.54927 z"
             points="-463.61844,223.47095 -463.61844,281.08558 -503.91336,271.53631 -503.91336,236.17626 " />
        </g>
      </g>
    </g>
  </g>
</svg>
